# Wavefront OBJ file automatically generated by Tiled2Unity

# Vertices (Count = 162)
v -15 -8 0
v -16 -8 0
v -16 -7 0
v -15 -7 0
v -17 -8 0
v -17 -7 0
v -18 -8 0
v -18 -7 0
v -19 -8 0
v -19 -7 0
v -20 -8 0
v -20 -7 0
v -21 -8 0
v -21 -7 0
v -15 -9 0
v -16 -9 0
v -17 -9 0
v -18 -9 0
v -19 -9 0
v -20 -9 0
v -21 -9 0
v -8 -10 0
v -9 -10 0
v -9 -9 0
v -8 -9 0
v -10 -10 0
v -10 -9 0
v -11 -10 0
v -11 -9 0
v -12 -10 0
v -12 -9 0
v -15 -10 0
v -16 -10 0
v -17 -10 0
v -18 -10 0
v -19 -10 0
v -20 -10 0
v -21 -10 0
v -8 -11 0
v -9 -11 0
v -10 -11 0
v -11 -11 0
v -12 -11 0
v -15 -11 0
v -16 -11 0
v -17 -11 0
v -18 -11 0
v -19 -11 0
v -20 -11 0
v -21 -11 0
v -8 -12 0
v -9 -12 0
v -10 -12 0
v -11 -12 0
v -12 -12 0
v -13 -12 0
v -13 -11 0
v -14 -12 0
v -14 -11 0
v -15 -12 0
v -16 -12 0
v -17 -12 0
v -18 -12 0
v -19 -12 0
v -20 -12 0
v -21 -12 0
v -8 -13 0
v -9 -13 0
v -10 -13 0
v -11 -13 0
v -12 -13 0
v -13 -13 0
v -14 -13 0
v -15 -13 0
v -16 -13 0
v -17 -13 0
v -18 -13 0
v -19 -13 0
v -20 -13 0
v -21 -13 0
v -15 -5 0
v -16 -5 0
v -16 -4 0
v -15 -4 0
v -17 -5 0
v -17 -4 0
v -18 -5 0
v -18 -4 0
v -19 -5 0
v -19 -4 0
v -20 -5 0
v -20 -4 0
v -21 -5 0
v -21 -4 0
v -15 -6 0
v -16 -6 0
v -17 -6 0
v -18 -6 0
v -19 -6 0
v -20 -6 0
v -21 -6 0
v -8 -7 0
v -9 -7 0
v -9 -6 0
v -8 -6 0
v -10 -7 0
v -10 -6 0
v -11 -7 0
v -11 -6 0
v -12 -7 0
v -12 -6 0
v -8 -8 0
v -9 -8 0
v -10 -8 0
v -11 -8 0
v -12 -8 0
v -13 -9 0
v -13 -8 0
v -14 -9 0
v -14 -8 0
v -13 -10 0
v -14 -10 0
v -14 -5 0
v -14 -4 0
v -22 -5 0
v -22 -4 0
v -14 -6 0
v -22 -6 0
v -7 -7 0
v -7 -6 0
v -13 -7 0
v -13 -6 0
v -14 -7 0
v -22 -7 0
v -7 -8 0
v -22 -8 0
v -7 -9 0
v -22 -9 0
v -7 -10 0
v -22 -10 0
v -7 -11 0
v -22 -11 0
v -7 -12 0
v -22 -12 0
v -7 -13 0
v -22 -13 0
v -7 -14 0
v -8 -14 0
v -9 -14 0
v -10 -14 0
v -11 -14 0
v -12 -14 0
v -13 -14 0
v -14 -14 0
v -15 -14 0
v -16 -14 0
v -17 -14 0
v -18 -14 0
v -19 -14 0
v -20 -14 0
v -21 -14 0
v -22 -14 0

# Texture cooridinates (Count = 340)
vt 0.2083384 0.5000051
vt 0.2499949 0.5000051
vt 0.2499949 0.5416616
vt 0.2083384 0.5416616
vt 0.2916718 0.5416718
vt 0.3333282 0.5416718
vt 0.3333282 0.5833282
vt 0.2916718 0.5833282
vt 0.4583384 0.1250051
vt 0.4999949 0.1250051
vt 0.4999949 0.1666616
vt 0.4583384 0.1666616
vt 0.5000051 0.1250051
vt 0.5416616 0.1250051
vt 0.5416616 0.1666616
vt 0.5000051 0.1666616
vt 0.5416718 0.1250051
vt 0.5833282 0.1250051
vt 0.5833282 0.1666616
vt 0.5416718 0.1666616
vt 0.5833384 0.1250051
vt 0.6249949 0.1250051
vt 0.6249949 0.1666616
vt 0.5833384 0.1666616
vt 0.3333384 0.04167175
vt 0.3749949 0.04167175
vt 0.3749949 0.08332825
vt 0.3333384 0.08332825
vt 0.3750051 0.04167175
vt 0.4166616 0.04167175
vt 0.4166616 0.08332825
vt 0.3750051 0.08332825
vt 0.3333384 0.4166718
vt 0.3749949 0.4166718
vt 0.3749949 0.4583282
vt 0.3333384 0.4583282
vt 0.4583384 0.08333844
vt 0.4999949 0.08333844
vt 0.4999949 0.1249949
vt 0.4583384 0.1249949
vt 0.5000051 0.08333844
vt 0.5416616 0.08333844
vt 0.5416616 0.1249949
vt 0.5000051 0.1249949
vt 0.5416718 0.08333844
vt 0.5833282 0.08333844
vt 0.5833282 0.1249949
vt 0.5416718 0.1249949
vt 0.5833384 0.08333844
vt 0.6249949 0.08333844
vt 0.6249949 0.1249949
vt 0.5833384 0.1249949
vt 0.4583384 0.04167175
vt 0.4999949 0.04167175
vt 0.4999949 0.08332825
vt 0.4583384 0.08332825
vt 0.5000051 0.04167175
vt 0.5416616 0.04167175
vt 0.5416616 0.08332825
vt 0.5000051 0.08332825
vt 0.5416718 0.04167175
vt 0.5833282 0.04167175
vt 0.5833282 0.08332825
vt 0.5416718 0.08332825
vt 0.5833384 0.04167175
vt 0.6249949 0.04167175
vt 0.6249949 0.08332825
vt 0.5833384 0.08332825
vt 0.1250051 0.4583384
vt 0.1666616 0.4583384
vt 0.1666616 0.4999949
vt 0.1250051 0.4999949
vt 0.08333842 0.04167175
vt 0.1249949 0.04167175
vt 0.1249949 0.08332825
vt 0.08333842 0.08332825
vt 0.4583384 5.066395E-06
vt 0.4999949 5.066395E-06
vt 0.4999949 0.04166156
vt 0.4583384 0.04166156
vt 0.5000051 5.066395E-06
vt 0.5416616 5.066395E-06
vt 0.5416616 0.04166156
vt 0.5000051 0.04166156
vt 0.5416718 5.066395E-06
vt 0.5833282 5.066395E-06
vt 0.5833282 0.04166156
vt 0.5416718 0.04166156
vt 0.5833384 5.066395E-06
vt 0.6249949 5.066395E-06
vt 0.6249949 0.04166156
vt 0.5833384 0.04166156
vt 0.1250051 0.4166718
vt 0.1666616 0.4166718
vt 0.1666616 0.4583282
vt 0.1250051 0.4583282
vt 0.08333842 5.066395E-06
vt 0.1249949 5.066395E-06
vt 0.1249949 0.04166156
vt 0.08333842 0.04166156
vt 0.1666718 0.3750051
vt 0.2083282 0.3750051
vt 0.2083282 0.4166616
vt 0.1666718 0.4166616
vt 0.2083384 0.3750051
vt 0.2499949 0.3750051
vt 0.2499949 0.4166616
vt 0.2083384 0.4166616
vt 0.1666718 0.3333384
vt 0.2083282 0.3333384
vt 0.2083282 0.3749949
vt 0.1666718 0.3749949
vt 0.2083384 0.3333384
vt 0.2499949 0.3333384
vt 0.2499949 0.3749949
vt 0.2083384 0.3749949
vt 0.1666718 0.2916718
vt 0.2083282 0.2916718
vt 0.2083282 0.3333282
vt 0.1666718 0.3333282
vt 0.2083384 0.2916718
vt 0.2499949 0.2916718
vt 0.2499949 0.3333282
vt 0.2083384 0.3333282
vt 0.08333842 0.5000051
vt 0.1249949 0.5000051
vt 0.1249949 0.5416616
vt 0.08333842 0.5416616
vt 0.6250051 0.3750051
vt 0.6666616 0.3750051
vt 0.6666616 0.4166616
vt 0.6250051 0.4166616
vt 0.6666718 0.3750051
vt 0.7083282 0.3750051
vt 0.7083282 0.4166616
vt 0.6666718 0.4166616
vt 0.6250051 0.3333384
vt 0.6666616 0.3333384
vt 0.6666616 0.3749949
vt 0.6250051 0.3749949
vt 0.6666718 0.3333384
vt 0.7083282 0.3333384
vt 0.7083282 0.3749949
vt 0.6666718 0.3749949
vt 0.6250051 0.2916718
vt 0.6666616 0.2916718
vt 0.6666616 0.3333282
vt 0.6250051 0.3333282
vt 0.6666718 0.2916718
vt 0.7083282 0.2916718
vt 0.7083282 0.3333282
vt 0.6666718 0.3333282
vt 0.3333384 0.8750051
vt 0.3749949 0.8750051
vt 0.3749949 0.9166616
vt 0.3333384 0.9166616
vt 0.3750051 0.8750051
vt 0.4166616 0.8750051
vt 0.4166616 0.9166616
vt 0.3750051 0.9166616
vt 0.3333384 0.8333384
vt 0.3749949 0.8333384
vt 0.3749949 0.8749949
vt 0.3333384 0.8749949
vt 0.3750051 0.8333384
vt 0.4166616 0.8333384
vt 0.4166616 0.8749949
vt 0.3750051 0.8749949
vt 0.3333384 0.7916718
vt 0.3749949 0.7916718
vt 0.3749949 0.8333282
vt 0.3333384 0.8333282
vt 0.3750051 0.7916718
vt 0.4166616 0.7916718
vt 0.4166616 0.8333282
vt 0.3750051 0.8333282
vt 5.086263E-06 0.9583384
vt 0.04166158 0.9583384
vt 0.04166158 0.9999949
vt 5.086263E-06 0.9999949
vt 0.04167175 0.9583384
vt 0.08332825 0.9583384
vt 0.08332825 0.9999949
vt 0.04167175 0.9999949
vt 0.08333842 0.9583384
vt 0.1249949 0.9583384
vt 0.1249949 0.9999949
vt 0.08333842 0.9999949
vt 5.086263E-06 0.9166718
vt 0.04166158 0.9166718
vt 0.04166158 0.9583282
vt 5.086263E-06 0.9583282
vt 0.04167175 0.9166718
vt 0.08332825 0.9166718
vt 0.08332825 0.9583282
vt 0.04167175 0.9583282
vt 0.08333842 0.9166718
vt 0.1249949 0.9166718
vt 0.1249949 0.9583282
vt 0.08333842 0.9583282
vt 5.086263E-06 0.8750051
vt 0.04166158 0.8750051
vt 0.04166158 0.9166616
vt 5.086263E-06 0.9166616
vt 0.04167175 0.8750051
vt 0.08332825 0.8750051
vt 0.08332825 0.9166616
vt 0.04167175 0.9166616
vt 0.08333842 0.8750051
vt 0.1249949 0.8750051
vt 0.1249949 0.9166616
vt 0.08333842 0.9166616
vt 5.086263E-06 0.7500051
vt 0.04166158 0.7500051
vt 0.04166158 0.7916616
vt 5.086263E-06 0.7916616
vt 5.086263E-06 0.7083384
vt 0.04166158 0.7083384
vt 0.04166158 0.7499949
vt 5.086263E-06 0.7499949
vt 5.086263E-06 0.6666718
vt 0.04166158 0.6666718
vt 0.04166158 0.7083282
vt 5.086263E-06 0.7083282
vt 0.5416718 0.5833384
vt 0.5833282 0.5833384
vt 0.5833282 0.6249949
vt 0.5416718 0.6249949
vt 0.4583384 0.5833384
vt 0.4999949 0.5833384
vt 0.4999949 0.6249949
vt 0.4583384 0.6249949
vt 0.5833384 0.5833384
vt 0.6249949 0.5833384
vt 0.6249949 0.6249949
vt 0.5833384 0.6249949
vt 0.6250076 0.7500076
vt 0.6874924 0.7500076
vt 0.6874924 0.8124924
vt 0.6250076 0.8124924
vt 0.6250076 0.6875076
vt 0.6874924 0.6875076
vt 0.6874924 0.7499924
vt 0.6250076 0.7499924
vt 0.6250076 0.6250076
vt 0.6874924 0.6250076
vt 0.6874924 0.6874924
vt 0.6250076 0.6874924
vt 0.8750051 0.2916718
vt 0.9166616 0.2916718
vt 0.9166616 0.3333282
vt 0.8750051 0.3333282
vt 0.9583384 0.2916718
vt 0.9999949 0.2916718
vt 0.9999949 0.3333282
vt 0.9583384 0.3333282
vt 0.8333384 0.2083384
vt 0.8749949 0.2083384
vt 0.8749949 0.2499949
vt 0.8333384 0.2499949
vt 0.1666718 0.04167175
vt 0.2083282 0.04167175
vt 0.2083282 0.08332825
vt 0.1666718 0.08332825
vt 0.2083384 0.04167175
vt 0.2499949 0.04167175
vt 0.2499949 0.08332825
vt 0.2083384 0.08332825
vt 0.5416718 0.9583384
vt 0.5833282 0.9583384
vt 0.5833282 0.9999949
vt 0.5416718 0.9999949
vt 0.4166718 0.9583384
vt 0.4583282 0.9583384
vt 0.4583282 0.9999949
vt 0.4166718 0.9999949
vt 0.3750051 0.4583384
vt 0.4166616 0.4583384
vt 0.4166616 0.4999949
vt 0.3750051 0.4999949
vt 0.8333384 0.1666718
vt 0.8749949 0.1666718
vt 0.8749949 0.2083282
vt 0.8333384 0.2083282
vt 0.1666718 5.066395E-06
vt 0.2083282 5.066395E-06
vt 0.2083282 0.04166156
vt 0.1666718 0.04166156
vt 0.2083384 5.066395E-06
vt 0.2499949 5.066395E-06
vt 0.2499949 0.04166156
vt 0.2083384 0.04166156
vt 0.9166718 0.1250051
vt 0.9583282 0.1250051
vt 0.9583282 0.1666616
vt 0.9166718 0.1666616
vt 0.3750051 0.5416718
vt 0.4166616 0.5416718
vt 0.4166616 0.5833282
vt 0.3750051 0.5833282
vt 0.6666718 0.2500051
vt 0.7083282 0.2500051
vt 0.7083282 0.2916616
vt 0.6666718 0.2916616
vt 0.1250051 0.9583384
vt 0.1666616 0.9583384
vt 0.1666616 0.9999949
vt 0.1250051 0.9999949
vt 0.1666718 0.9583384
vt 0.2083282 0.9583384
vt 0.2083282 0.9999949
vt 0.1666718 0.9999949
vt 0.04167175 0.7916718
vt 0.08332825 0.7916718
vt 0.08332825 0.8333282
vt 0.04167175 0.8333282
vt 0.08333842 0.7916718
vt 0.1249949 0.7916718
vt 0.1249949 0.8333282
vt 0.08333842 0.8333282
vt 0.1250051 0.7500051
vt 0.1666616 0.7500051
vt 0.1666616 0.7916616
vt 0.1250051 0.7916616
vt 0.1666718 0.7500051
vt 0.2083282 0.7500051
vt 0.2083282 0.7916616
vt 0.1666718 0.7916616
vt 0.04167175 0.7083384
vt 0.08332825 0.7083384
vt 0.08332825 0.7499949
vt 0.04167175 0.7499949
vt 0.04167175 0.8333384
vt 0.08332825 0.8333384
vt 0.08332825 0.8749949
vt 0.04167175 0.8749949
vt 0.08333842 0.7500051
vt 0.1249949 0.7500051
vt 0.1249949 0.7916616
vt 0.08333842 0.7916616

# Normal
vn 0 0 -1

# Groups (Count = 9)

g mesh_0001
f 1/1/1 2/2/1 3/3/1 4/4/1
f 2/1/1 5/2/1 6/3/1 3/4/1
f 5/1/1 7/2/1 8/3/1 6/4/1
f 7/1/1 9/2/1 10/3/1 8/4/1
f 9/1/1 11/2/1 12/3/1 10/4/1
f 11/1/1 13/2/1 14/3/1 12/4/1
f 15/1/1 16/2/1 2/3/1 1/4/1
f 16/1/1 17/2/1 5/3/1 2/4/1
f 17/1/1 18/2/1 7/3/1 5/4/1
f 18/1/1 19/2/1 9/3/1 7/4/1
f 19/1/1 20/2/1 11/3/1 9/4/1
f 20/1/1 21/2/1 13/3/1 11/4/1
f 22/5/1 23/6/1 24/7/1 25/8/1
f 23/5/1 26/6/1 27/7/1 24/8/1
f 26/5/1 28/6/1 29/7/1 27/8/1
f 28/5/1 30/6/1 31/7/1 29/8/1
f 32/1/1 33/2/1 16/3/1 15/4/1
f 33/1/1 34/2/1 17/3/1 16/4/1
f 34/1/1 35/2/1 18/3/1 17/4/1
f 35/1/1 36/2/1 19/3/1 18/4/1
f 36/1/1 37/2/1 20/3/1 19/4/1
f 37/1/1 38/2/1 21/3/1 20/4/1
f 39/5/1 40/6/1 23/7/1 22/8/1
f 40/5/1 41/6/1 26/7/1 23/8/1
f 41/5/1 42/6/1 28/7/1 26/8/1
f 42/5/1 43/6/1 30/7/1 28/8/1
f 44/1/1 45/2/1 33/3/1 32/4/1
f 45/1/1 46/2/1 34/3/1 33/4/1
f 46/1/1 47/2/1 35/3/1 34/4/1
f 47/1/1 48/2/1 36/3/1 35/4/1
f 48/1/1 49/2/1 37/3/1 36/4/1
f 49/1/1 50/2/1 38/3/1 37/4/1
f 51/5/1 52/6/1 40/7/1 39/8/1
f 52/5/1 53/6/1 41/7/1 40/8/1
f 53/5/1 54/6/1 42/7/1 41/8/1
f 54/5/1 55/6/1 43/7/1 42/8/1
f 55/5/1 56/6/1 57/7/1 43/8/1
f 56/1/1 58/2/1 59/3/1 57/4/1
f 58/1/1 60/2/1 44/3/1 59/4/1
f 60/1/1 61/2/1 45/3/1 44/4/1
f 61/1/1 62/2/1 46/3/1 45/4/1
f 62/1/1 63/2/1 47/3/1 46/4/1
f 63/1/1 64/2/1 48/3/1 47/4/1
f 64/1/1 65/2/1 49/3/1 48/4/1
f 65/1/1 66/2/1 50/3/1 49/4/1
f 67/5/1 68/6/1 52/7/1 51/8/1
f 68/5/1 69/6/1 53/7/1 52/8/1
f 69/5/1 70/6/1 54/7/1 53/8/1
f 70/5/1 71/6/1 55/7/1 54/8/1
f 71/5/1 72/6/1 56/7/1 55/8/1
f 72/1/1 73/2/1 58/3/1 56/4/1
f 73/1/1 74/2/1 60/3/1 58/4/1
f 74/1/1 75/2/1 61/3/1 60/4/1
f 75/1/1 76/2/1 62/3/1 61/4/1
f 76/1/1 77/2/1 63/3/1 62/4/1
f 77/1/1 78/2/1 64/3/1 63/4/1
f 78/1/1 79/2/1 65/3/1 64/4/1
f 79/1/1 80/2/1 66/3/1 65/4/1

g mesh_0002
f 16/9/1 17/10/1 5/11/1 2/12/1
f 17/13/1 18/14/1 7/15/1 5/16/1
f 18/17/1 19/18/1 9/19/1 7/20/1
f 19/21/1 20/22/1 11/23/1 9/24/1
f 22/25/1 23/26/1 24/27/1 25/28/1
f 23/29/1 26/30/1 27/31/1 24/32/1
f 26/25/1 28/26/1 29/27/1 27/28/1
f 28/33/1 30/34/1 31/35/1 29/36/1
f 33/37/1 34/38/1 17/39/1 16/40/1
f 34/41/1 35/42/1 18/43/1 17/44/1
f 35/45/1 36/46/1 19/47/1 18/48/1
f 36/49/1 37/50/1 20/51/1 19/52/1
f 45/53/1 46/54/1 34/55/1 33/56/1
f 46/57/1 47/58/1 35/59/1 34/60/1
f 47/61/1 48/62/1 36/63/1 35/64/1
f 48/65/1 49/66/1 37/67/1 36/68/1
f 51/69/1 52/70/1 40/71/1 39/72/1
f 52/73/1 53/74/1 41/75/1 40/76/1
f 61/77/1 62/78/1 46/79/1 45/80/1
f 62/81/1 63/82/1 47/83/1 46/84/1
f 63/85/1 64/86/1 48/87/1 47/88/1
f 64/89/1 65/90/1 49/91/1 48/92/1
f 67/93/1 68/94/1 52/95/1 51/96/1
f 68/97/1 69/98/1 53/99/1 52/100/1

g mesh_0003
f 34/101/1 35/102/1 18/103/1 17/104/1
f 35/105/1 36/106/1 19/107/1 18/108/1
f 46/109/1 47/110/1 35/111/1 34/112/1
f 47/113/1 48/114/1 36/115/1 35/116/1
f 62/117/1 63/118/1 47/119/1 46/120/1
f 63/121/1 64/122/1 48/123/1 47/124/1
f 68/125/1 69/126/1 53/127/1 52/128/1

g mesh_0004
f 34/129/1 35/130/1 18/131/1 17/132/1
f 35/133/1 36/134/1 19/135/1 18/136/1
f 46/137/1 47/138/1 35/139/1 34/140/1
f 47/141/1 48/142/1 36/143/1 35/144/1
f 62/145/1 63/146/1 47/147/1 46/148/1
f 63/149/1 64/150/1 48/151/1 47/152/1

g mesh_0005
f 34/153/1 35/154/1 18/155/1 17/156/1
f 35/157/1 36/158/1 19/159/1 18/160/1
f 46/161/1 47/162/1 35/163/1 34/164/1
f 47/165/1 48/166/1 36/167/1 35/168/1
f 62/169/1 63/170/1 47/171/1 46/172/1
f 63/173/1 64/174/1 48/175/1 47/176/1

g mesh_0006
f 81/177/1 82/178/1 83/179/1 84/180/1
f 82/181/1 85/182/1 86/183/1 83/184/1
f 85/181/1 87/182/1 88/183/1 86/184/1
f 87/181/1 89/182/1 90/183/1 88/184/1
f 89/181/1 91/182/1 92/183/1 90/184/1
f 91/185/1 93/186/1 94/187/1 92/188/1
f 95/189/1 96/190/1 82/191/1 81/192/1
f 96/193/1 97/194/1 85/195/1 82/196/1
f 97/193/1 98/194/1 87/195/1 85/196/1
f 98/193/1 99/194/1 89/195/1 87/196/1
f 99/193/1 100/194/1 91/195/1 89/196/1
f 100/197/1 101/198/1 93/199/1 91/200/1
f 102/177/1 103/178/1 104/179/1 105/180/1
f 103/181/1 106/182/1 107/183/1 104/184/1
f 106/181/1 108/182/1 109/183/1 107/184/1
f 108/185/1 110/186/1 111/187/1 109/188/1
f 4/201/1 3/202/1 96/203/1 95/204/1
f 3/205/1 6/206/1 97/207/1 96/208/1
f 6/205/1 8/206/1 98/207/1 97/208/1
f 8/205/1 10/206/1 99/207/1 98/208/1
f 10/205/1 12/206/1 100/207/1 99/208/1
f 12/209/1 14/210/1 101/211/1 100/212/1
f 112/189/1 113/190/1 103/191/1 102/192/1
f 113/193/1 114/194/1 106/195/1 103/196/1
f 114/193/1 115/194/1 108/195/1 106/196/1
f 115/197/1 116/198/1 110/199/1 108/200/1
f 25/201/1 24/202/1 113/203/1 112/204/1
f 24/205/1 27/206/1 114/207/1 113/208/1
f 27/205/1 29/206/1 115/207/1 114/208/1
f 29/209/1 31/210/1 116/211/1 115/212/1
f 31/177/1 117/178/1 118/179/1 116/180/1
f 117/181/1 119/182/1 120/183/1 118/184/1
f 119/185/1 15/186/1 1/187/1 120/188/1
f 30/189/1 121/190/1 117/191/1 31/192/1
f 121/193/1 122/194/1 119/195/1 117/196/1
f 122/197/1 32/198/1 15/199/1 119/200/1
f 43/201/1 57/202/1 121/203/1 30/204/1
f 57/205/1 59/206/1 122/207/1 121/208/1
f 59/209/1 44/210/1 32/211/1 122/212/1

g mesh_0007
f 81/213/1 82/214/1 83/215/1 84/216/1
f 85/213/1 87/214/1 88/215/1 86/216/1
f 87/213/1 89/214/1 90/215/1 88/216/1
f 91/213/1 93/214/1 94/215/1 92/216/1
f 95/217/1 96/218/1 82/219/1 81/220/1
f 97/217/1 98/218/1 87/219/1 85/220/1
f 98/217/1 99/218/1 89/219/1 87/220/1
f 100/217/1 101/218/1 93/219/1 91/220/1
f 4/221/1 3/222/1 96/223/1 95/224/1
f 6/221/1 8/222/1 98/223/1 97/224/1
f 8/221/1 10/222/1 99/223/1 98/224/1
f 12/221/1 14/222/1 101/223/1 100/224/1
f 25/225/1 24/226/1 113/227/1 112/228/1
f 24/229/1 27/230/1 114/231/1 113/232/1
f 27/229/1 29/230/1 115/231/1 114/232/1
f 29/233/1 31/234/1 116/235/1 115/236/1

g mesh_0008
f 82/237/1 85/238/1 86/239/1 83/240/1
f 89/237/1 91/238/1 92/239/1 90/240/1
f 96/241/1 97/242/1 85/243/1 82/244/1
f 99/241/1 100/242/1 91/243/1 89/244/1
f 3/245/1 6/246/1 97/247/1 96/248/1
f 10/245/1 12/246/1 100/247/1 99/248/1

g mesh_0009
f 97/249/1 98/250/1 87/251/1 85/252/1
f 98/253/1 99/254/1 89/255/1 87/256/1
f 4/257/1 3/258/1 96/259/1 95/260/1
f 6/261/1 8/262/1 98/263/1 97/264/1
f 8/265/1 10/266/1 99/267/1 98/268/1
f 12/257/1 14/258/1 101/259/1 100/260/1
f 112/269/1 113/270/1 103/271/1 102/272/1
f 113/273/1 114/274/1 106/275/1 103/276/1
f 114/269/1 115/270/1 108/271/1 106/272/1
f 115/277/1 116/278/1 110/279/1 108/280/1
f 1/281/1 2/282/1 3/283/1 4/284/1
f 5/285/1 7/286/1 8/287/1 6/288/1
f 7/289/1 9/290/1 10/291/1 8/292/1
f 11/281/1 13/282/1 14/283/1 12/284/1
f 25/293/1 24/294/1 113/295/1 112/296/1
f 24/297/1 27/298/1 114/299/1 113/300/1
f 121/301/1 122/302/1 119/303/1 117/304/1

g mesh_0010
f 123/305/1 81/306/1 84/307/1 124/308/1
f 93/309/1 125/310/1 126/311/1 94/312/1
f 127/313/1 95/314/1 81/315/1 123/316/1
f 101/317/1 128/318/1 125/319/1 93/320/1
f 129/305/1 102/306/1 105/307/1 130/308/1
f 110/309/1 131/310/1 132/311/1 111/312/1
f 133/313/1 4/314/1 95/315/1 127/316/1
f 14/317/1 134/318/1 128/319/1 101/320/1
f 135/313/1 112/314/1 102/315/1 129/316/1
f 116/317/1 118/318/1 131/319/1 110/320/1
f 120/313/1 1/314/1 4/315/1 133/316/1
f 13/317/1 136/318/1 134/319/1 14/320/1
f 137/313/1 25/314/1 112/315/1 135/316/1
f 31/321/1 117/322/1 118/323/1 116/324/1
f 119/325/1 15/326/1 1/327/1 120/328/1
f 21/317/1 138/318/1 136/319/1 13/320/1
f 139/313/1 22/314/1 25/315/1 137/316/1
f 38/317/1 140/318/1 138/319/1 21/320/1
f 141/313/1 39/314/1 22/315/1 139/316/1
f 50/317/1 142/318/1 140/319/1 38/320/1
f 143/313/1 51/314/1 39/315/1 141/316/1
f 66/317/1 144/318/1 142/319/1 50/320/1
f 145/313/1 67/314/1 51/315/1 143/316/1
f 80/317/1 146/318/1 144/319/1 66/320/1
f 147/329/1 148/330/1 67/331/1 145/332/1
f 148/333/1 149/334/1 68/335/1 67/336/1
f 149/333/1 150/334/1 69/335/1 68/336/1
f 150/333/1 151/334/1 70/335/1 69/336/1
f 151/333/1 152/334/1 71/335/1 70/336/1
f 152/333/1 153/334/1 72/335/1 71/336/1
f 153/333/1 154/334/1 73/335/1 72/336/1
f 154/333/1 155/334/1 74/335/1 73/336/1
f 155/333/1 156/334/1 75/335/1 74/336/1
f 156/333/1 157/334/1 76/335/1 75/336/1
f 157/333/1 158/334/1 77/335/1 76/336/1
f 158/333/1 159/334/1 78/335/1 77/336/1
f 159/333/1 160/334/1 79/335/1 78/336/1
f 160/333/1 161/334/1 80/335/1 79/336/1
f 161/337/1 162/338/1 146/339/1 80/340/1

